<?xml version="1.0" standalone="no"?>
<!DOCTYPE svg PUBLIC "-//W3C//DTD SVG 20010904//EN"
 "http://www.w3.org/TR/2001/REC-SVG-20010904/DTD/svg10.dtd">
<svg version="1.0" xmlns="http://www.w3.org/2000/svg"
 width="320.000000pt" height="320.000000pt" viewBox="0 0 320.000000 320.000000"
 preserveAspectRatio="xMidYMid meet">
<metadata>
Created by potrace 1.11, written by Peter Selinger 2001-2013
</metadata>
<g transform="translate(0.000000,320.000000) scale(0.100000,-0.100000)"
fill="#000000" stroke="none">
<path d="M2705 2726 c-155 -42 -243 -205 -192 -353 11 -31 12 -45 3 -51 -6 -5
-84 -41 -174 -82 l-162 -73 -211 106 -210 105 -223 -111 -223 -111 0 -208 c0
-115 -2 -210 -4 -211 -24 -15 -397 -197 -405 -197 -11 0 -78 29 -237 104 -42
20 -82 36 -87 36 -13 0 -12 7 5 55 64 178 -94 381 -284 362 -150 -15 -255
-129 -255 -278 1 -233 271 -358 455 -210 l40 33 172 -79 172 -79 1 -202 c0
-111 3 -204 5 -206 2 -3 103 -54 223 -114 l219 -110 208 104 c169 84 213 102
231 95 13 -5 67 -30 121 -55 55 -25 100 -46 102 -46 1 0 32 -13 68 -30 l66
-30 -15 -36 c-17 -41 -20 -133 -5 -181 19 -65 83 -137 150 -170 54 -27 183
-25 237 4 97 51 154 145 154 253 0 149 -124 273 -273 273 -70 0 -151 -30 -188
-69 -12 -13 -26 -24 -31 -24 -7 0 -366 158 -376 166 -8 5 -3 377 5 384 4 5 94
51 199 104 184 92 193 95 220 82 16 -8 92 -42 169 -76 77 -35 144 -66 149 -71
5 -4 2 -26 -6 -51 -31 -91 -2 -211 68 -282 92 -92 260 -104 360 -25 79 63 120
152 111 244 -6 68 -28 116 -77 169 -101 109 -279 114 -390 11 l-25 -24 -130
60 c-71 33 -151 69 -177 81 -27 12 -49 24 -49 27 -1 3 -2 90 -3 193 l-1 187
60 27 c33 15 92 42 130 59 39 18 91 42 118 54 l47 22 28 -27 c24 -23 70 -49
112 -62 8 -3 47 -5 85 -5 52 0 80 5 110 20 81 42 131 108 149 194 14 69 5 134
-27 195 -21 40 -87 100 -132 118 -47 20 -130 25 -180 12z m-728 -516 l172 -85
0 -195 1 -195 -195 -97 -195 -98 -198 99 -197 99 1 193 c0 106 5 195 10 197 5
2 92 45 194 96 164 82 188 91 210 82 14 -6 103 -49 197 -96z m-447 -619 l194
-97 1 -188 c0 -103 -2 -191 -5 -195 -3 -5 -90 -51 -195 -104 l-190 -95 -196
99 -196 98 -1 193 -1 193 192 97 c106 53 194 96 197 96 3 1 93 -43 200 -97z"/>
</g>
</svg>
